# xmcd CD database file
#
# Track frame offsets:
#	150
#	16049
#	36220
#	53259
#	72710
#	93188
#	109237
#	132158
#	149820
#	170023
#	192510
#	213506
#	236535
#
# Disc length: 3762 seconds
#
# Revision: 1
# Processed by: cddbd v1.5.2PL0 Copyright (c) Steve Scherf et al.
# Submitted via: CDex 1.51
#
DISCID=bc0eb00d
DTITLE=The Damnwells - Air Stereo
DYEAR=2006
DGENRE=Rock
TTITLE0=I've Got You
TTITLE1=Accidental Man
TTITLE2=You Don't Have To Like Me To Love Me
TTITLE3=Golden Days
TTITLE4=Louisville
TTITLE5=Sell The Lie
TTITLE6=Shiny Bruise
TTITLE7=Heartbreaklist
TTITLE8=Kung Fu Grip Kiss
TTITLE9=I Am A Leaver
TTITLE10=Graceless
TTITLE11=Keep A Little Organ
TTITLE12=God Bless America
EXTD=YEAR: 2006
EXTT0=
EXTT1=
EXTT2=
EXTT3=
EXTT4=
EXTT5=
EXTT6=
EXTT7=
EXTT8=
EXTT9=
EXTT10=
EXTT11=
EXTT12=
PLAYORDER=
